<svg width="20" height="17" viewBox="0 0 20 17" fill="none" xmlns="http://www.w3.org/2000/svg">
<path d="M0.454655 1.42795e-05C0.203549 1.42795e-05 0 0.197754 0 0.441679C0 0.685603 0.203549 0.883343 0.454655 0.883343H2.81318L5.20721 11.8836C5.1828 12.1352 5.42333 12.3793 5.68319 12.3666H17.0496C17.2898 12.3699 17.5107 12.1583 17.5107 11.925C17.5107 11.6916 17.2898 11.48 17.0496 11.4833H6.0526L5.66898 9.71664H17.9589C18.1624 9.71444 18.3548 9.56456 18.3993 9.37159L19.9906 2.74661C20.0497 2.49029 19.8206 2.21021 19.5502 2.20834H4.03506L3.63015 0.345065C3.58509 0.149853 3.38852 -0.00169275 3.18259 1.42795e-05H0.454655ZM4.22688 3.09167H18.9819L17.5966 8.83332H5.47719L4.22688 3.09167ZM8.09854 13.025C6.974 13.025 6.0526 13.9201 6.0526 15.0125C6.0526 16.1049 6.974 17 8.09854 17C9.22311 17 10.1445 16.1049 10.1445 15.0125C10.1445 13.9201 9.22311 13.025 8.09854 13.025ZM14.4637 13.025C13.3392 13.025 12.4178 13.9201 12.4178 15.0125C12.4178 16.1049 13.3392 17 14.4637 17C15.5883 17 16.5097 16.1049 16.5097 15.0125C16.5097 13.9201 15.5883 13.025 14.4637 13.025ZM8.09854 13.9083C8.73167 13.9083 9.23518 14.3975 9.23518 15.0125C9.23518 15.6275 8.73167 16.1167 8.09854 16.1167C7.46544 16.1167 6.96191 15.6275 6.96191 15.0125C6.96191 14.3975 7.46544 13.9083 8.09854 13.9083ZM14.4637 13.9083C15.0968 13.9083 15.6004 14.3975 15.6004 15.0125C15.6004 15.6275 15.0968 16.1167 14.4637 16.1167C13.8306 16.1167 13.3271 15.6275 13.3271 15.0125C13.3271 14.3975 13.8306 13.9083 14.4637 13.9083Z" fill="#1A1A1A"/>
</svg>
