<?xml version="1.0" encoding="UTF-8"?>
<svg fill="none" viewBox="0 0 15 15" xmlns="http://www.w3.org/2000/svg">
<path d="m14.889 14.219-4.0529-4.0605c1.0343-1.2094 1.5602-2.7724 1.4673-4.3611s-0.7973-3.0798-1.9656-4.1604c-1.1682-1.0807-2.7096-1.667-4.3007-1.636-1.5911 0.030981-3.1085 0.67685-4.2338 1.8022-1.1253 1.1253-1.7712 2.6426-1.8022 4.2338-0.030981 1.5911 0.55534 3.1324 1.636 4.3007 1.0806 1.1683 2.5717 1.8727 4.1604 1.9656s3.1517-0.433 4.3611-1.4673l4.0605 4.0529c0.0351 0.0352 0.0769 0.0631 0.1228 0.0822 0.046 0.019 0.0952 0.0288 0.1449 0.0288 0.0498 0 0.099-0.0098 0.145-0.0288 0.0459-0.0191 0.0876-0.047 0.1228-0.0822l0.1343-0.1343c0.0352-0.0352 0.0631-0.0769 0.0822-0.1228 0.019-0.046 0.0288-0.0952 0.0288-0.145 0-0.0497-0.0098-0.0989-0.0288-0.1449-0.0191-0.0459-0.047-0.0877-0.0822-0.1228zm-13.924-8.051c0-1.0291 0.30517-2.0351 0.87692-2.8908s1.3844-1.5226 2.3352-1.9164c0.95078-0.39382 1.997-0.49687 3.0064-0.2961 1.0093 0.20078 1.9365 0.69634 2.6642 1.424 0.72766 0.7277 1.2233 1.6548 1.4241 2.6642 0.2008 1.0093 0.0977 2.0556-0.2961 3.0064-0.3938 0.95078-1.0608 1.7634-1.9165 2.3351-0.85568 0.5718-1.8617 0.877-2.8908 0.877-1.3794-2e-3 -2.7017-0.5509-3.6771-1.5263-0.97539-0.97538-1.5242-2.2977-1.5262-3.6771z" fill="#000"/>
</svg>
