<?xml version="1.0" encoding="UTF-8" standalone="no"?>
<svg width="18" xmlns="http://www.w3.org/2000/svg" fill="none" viewBox="0 0 18 15" height="15">
 <path d="m6.0192 12.34c1.1118 1.053 2.0894 1.958 2.5687 2.475 0.115 0.111 0.2683 0.185 0.4217 0.185 0.1533 0 0.3259-0.074 0.4217-0.185 0.4792-0.517 1.4377-1.422 2.5687-2.475 2.933-2.771 5.214-4.9508 5.655-5.9668 0.23-0.5542 0.345-1.1454 0.345-1.7365 0-2.5493-2.147-4.6182-4.792-4.6182-1.994-0.000027-3.4316 1.4039-4.2176 2.3276-0.7668-0.9422-2.2045-2.3461-4.1981-2.3461-2.6453 0-4.7923 2.069-4.7923 4.6182 0 0.6096 0.11502 1.1823 0.34505 1.7365 0.46006 1.016 2.7412 3.2143 5.6742 5.9853zm-1.2269-11.232c1.3035 0 2.4921 0.7943 3.7381 2.4753 0.115 0.1478 0.2875 0.2402 0.46 0.2402s0.3642-0.0924 0.4601-0.2402c1.2845-1.681 2.4725-2.4753 3.7765-2.4753 2.013 0 3.642 1.5702 3.642 3.5098 0 0.4618-0.096 0.9052-0.268 1.3301-0.384 0.8867-3.393 3.7315-5.387 5.5977-0.863 0.812-1.6485 1.551-2.1852 2.087-0.5368-0.536-1.3227-1.275-2.1854-2.087-2.0127-1.8847-5.0415-4.7295-5.4057-5.6162-0.1725-0.4249-0.2684-0.8682-0.2684-1.33 0-1.9212 1.6294-3.4914 3.623-3.4914z" fill="#000"/>
</svg>
